<svg xmlns="http://www.w3.org/2000/svg" width="58" height="58" viewBox="0 0 58 58"><g transform="translate(-365 -160)"><circle cx="29" cy="29" r="29" transform="translate(365 160)" fill="#ffaf5f"/><path d="M20.954,17.893l1.667-1.667a.419.419,0,0,1,.714.3V24.1a2.5,2.5,0,0,1-2.5,2.5H2.5A2.5,2.5,0,0,1,0,24.1V5.762a2.5,2.5,0,0,1,2.5-2.5H16.745a.419.419,0,0,1,.3.714L15.375,5.643a.413.413,0,0,1-.3.12H2.5V24.1H20.834V18.185A.41.41,0,0,1,20.954,17.893ZM29.11,7.382,15.433,21.06l-4.708.521a2.152,2.152,0,0,1-2.375-2.375L8.87,14.5,22.547.82a3.04,3.04,0,0,1,4.307,0L29.1,3.07a3.051,3.051,0,0,1,.005,4.313ZM23.964,8.992,20.938,5.965l-9.677,9.683-.38,3.4,3.4-.38ZM27.339,4.84l-2.25-2.25a.544.544,0,0,0-.771,0L22.709,4.2l3.026,3.026,1.609-1.609A.555.555,0,0,0,27.339,4.84Z" transform="translate(382 175.075)" fill="#fff"/></g></svg>