<svg xmlns="http://www.w3.org/2000/svg" width="58" height="58" viewBox="0 0 58 58"><g transform="translate(-3051 66)"><circle cx="29" cy="29" r="29" transform="translate(3051 -66)" fill="#ffaf5f"/><path d="M18.153,20.747A10.373,10.373,0,1,0,7.78,10.373,10.373,10.373,0,0,0,18.153,20.747Zm7.261,2.593H24.061a14.107,14.107,0,0,1-11.816,0H10.892A10.9,10.9,0,0,0,0,34.232V37.6a3.891,3.891,0,0,0,3.89,3.89H32.417a3.891,3.891,0,0,0,3.89-3.89V34.232A10.9,10.9,0,0,0,25.415,23.34Z" transform="translate(3062 -59)" fill="#fff"/></g></svg>