<svg xmlns="http://www.w3.org/2000/svg" width="24.768" height="21.672" viewBox="0 0 24.768 21.672"><path d="M1.548,52.124A1.546,1.546,0,0,0,3.1,53.672H21.672a1.546,1.546,0,0,0,1.548-1.548V38.192H1.548Zm7.74-10.255a.582.582,0,0,1,.58-.58H14.9a.582.582,0,0,1,.58.58v.387a.582.582,0,0,1-.58.58H9.868a.582.582,0,0,1-.58-.58ZM23.22,32H1.548A1.546,1.546,0,0,0,0,33.548V35.87a.776.776,0,0,0,.774.774h23.22a.776.776,0,0,0,.774-.774V33.548A1.546,1.546,0,0,0,23.22,32Z" transform="translate(0 -32)" fill="#6678d9"/></svg>